<mxfile host="app.diagrams.net" modified="2024-03-15T16:58:04.239Z" agent="Mozilla/5.0 (Macintosh; Intel Mac OS X 10_15_7) AppleWebKit/537.36 (KHTML, like Gecko) Chrome/122.0.0.0 Safari/537.36" version="23.1.4" etag="aGI1BWFDD9TkfcJ9725D" type="github">
  <diagram name="Page-1" id="mxeEaV4emvxGSS3DbPl-">
    <mxGraphModel>
      <root>
        <mxCell id="0" />
        <mxCell id="1" parent="0" />
      </root>
    </mxGraphModel>
  </diagram>
</mxfile>
